<?xml version="1.0" encoding="UTF-8"?>
<!DOCTYPE svg PUBLIC "-//W3C//DTD SVG 1.1//EN" "http://www.w3.org/Graphics/SVG/1.1/DTD/svg11.dtd">
<!-- Creator: CorelDRAW -->
<svg xmlns="http://www.w3.org/2000/svg" xml:space="preserve" width="20px" height="20px" version="1.1" style="shape-rendering:geometricPrecision; text-rendering:geometricPrecision; image-rendering:optimizeQuality; fill-rule:evenodd; clip-rule:evenodd"
viewBox="0 0 20 20"
 xmlns:xlink="http://www.w3.org/1999/xlink"
 xmlns:xodm="http://www.corel.com/coreldraw/odm/2003">
 <defs>
  <style type="text/css">
   <![CDATA[
    .fil1 {fill:#E6E7E8}
    .fil0 {fill:#E6E7E8;fill-rule:nonzero}
   ]]>
  </style>
   <clipPath id="id0">
    <rect x="40.75" y="-2352.76" width="8000.63" height="4500.36"/>
   </clipPath>
 </defs>
 <g id="Camada_x0020_1">
  <metadata id="CorelCorpID_0Corel-Layer"/>
  <path class="fil0" d="M9.81 15.38c-0.86,0 -1.67,-0.05 -2.44,-0.16 -0.76,-0.11 -1.41,-0.26 -1.93,-0.45l0 -2c0.63,0.22 1.3,0.39 1.99,0.5 0.69,0.11 1.39,0.17 2.07,0.17 1.17,0 2,-0.13 2.5,-0.38 0.5,-0.25 0.75,-0.72 0.75,-1.4 0,-0.5 -0.13,-0.88 -0.4,-1.14 -0.27,-0.26 -0.68,-0.49 -1.22,-0.7 -0.55,-0.2 -1.25,-0.44 -2.1,-0.72 -0.76,-0.26 -1.44,-0.53 -2.03,-0.81 -0.59,-0.27 -1.06,-0.65 -1.39,-1.12 -0.33,-0.47 -0.5,-1.11 -0.5,-1.91 0,-1.16 0.41,-2.06 1.22,-2.68 0.82,-0.62 2.13,-0.93 3.95,-0.93 0.7,0 1.38,0.05 2.03,0.15 0.65,0.1 1.21,0.23 1.69,0.38l0 2c-1.16,-0.39 -2.28,-0.58 -3.36,-0.58 -1.15,0 -1.98,0.11 -2.49,0.34 -0.51,0.23 -0.76,0.67 -0.76,1.3 0,0.42 0.11,0.76 0.35,1.01 0.23,0.25 0.59,0.46 1.08,0.64 0.49,0.18 1.13,0.39 1.9,0.65 1.02,0.32 1.85,0.64 2.48,0.98 0.63,0.33 1.09,0.74 1.39,1.22 0.3,0.48 0.44,1.11 0.44,1.89 0,1.3 -0.45,2.25 -1.36,2.85 -0.91,0.6 -2.19,0.9 -3.86,0.9z"/>
  <path class="fil1" d="M28.76 1.29l-0.02 1.17c0.45,0.12 0.83,0.26 1.14,0.43l0.78 -0.88c0.84,0.5 1.46,1.07 2,1.87l-0.84 0.8c0.23,0.41 0.4,0.78 0.5,1.11l1.18 -0.07c0.23,0.95 0.27,1.79 0.08,2.74l-1.16 -0.03c-0.12,0.46 -0.26,0.83 -0.43,1.15l0.88 0.78c-0.5,0.83 -1.07,1.45 -1.87,1.99l-0.81 -0.84c-0.4,0.24 -0.77,0.4 -1.1,0.51l0.06 1.17c-0.94,0.24 -1.78,0.27 -2.73,0.09l0.03 -1.17c-0.46,-0.11 -0.83,-0.26 -1.15,-0.42l-0.78 0.88c-0.84,-0.5 -1.45,-1.08 -1.99,-1.88l0.84 -0.8c-0.24,-0.41 -0.4,-0.77 -0.51,-1.11l-1.17 0.07c-0.24,-0.95 -0.27,-1.79 -0.09,-2.73l1.17 0.02c0.11,-0.46 0.26,-0.83 0.42,-1.14l-0.88 -0.78c0.5,-0.84 1.08,-1.46 1.87,-2l0.81 0.84c0.41,-0.24 0.77,-0.4 1.11,-0.5l-0.07 -1.18c0.94,-0.24 1.79,-0.27 2.73,-0.09zm-1.17 3c1.66,0 3,1.34 3,3 0,1.65 -1.34,2.99 -3,2.99 -1.65,0 -2.99,-1.34 -2.99,-2.99 0,-1.66 1.34,-3 2.99,-3z"/>
  <g style="clip-path:url(#id0)">
   <image x="40.75" y="-2352.76" width="8000.63" height="4500.35" xlink:href="sIcon_Images\sIcon_ImgID1.png"/>
  </g>
  <polygon class="fil0" points="13.94,8.23 13.23,7.71 14.53,6.26 12.84,5.56 13.2,4.8 14.76,5.55 14.7,3.87 15.62,3.87 15.56,5.55 17.1,4.8 17.47,5.56 15.76,6.26 17.07,7.71 16.37,8.23 15.15,6.65 "/>
 </g>
</svg>
